<svg width="1440" height="900" viewBox="0 0 1440 900" fill="none" xmlns="http://www.w3.org/2000/svg">
<g clip-path="url(#clip0_1_2)">
<rect width="1440" height="900" fill="#1f2937"/>
<path d="M1440 0H0V900H1440V0Z" fill="url(#paint0_linear_1_2)"/>
<g opacity="0.4">
<path d="M1175.4 135.5C1175.4 135.5 1114.8 98.4 1066.9 135.5C1019 172.6 1019 209.7 971.1 209.7C923.2 209.7 899.3 172.6 851.4 172.6C803.5 172.6 779.5 209.7 731.6 209.7C683.7 209.7 659.8 172.6 611.9 172.6C564 172.6 540 209.7 492.1 209.7C444.2 209.7 420.3 172.6 372.4 172.6C324.5 172.6 300.5 209.7 252.6 209.7C204.7 209.7 180.8 172.6 132.9 172.6C85 172.6 61 209.7 13.1 209.7C-34.8 209.7 -58.7 172.6 -106.6 172.6" stroke="#4ade80" stroke-width="2" stroke-miterlimit="10"/>
<path d="M1175.4 246.8C1175.4 246.8 1114.8 209.7 1066.9 246.8C1019 283.9 1019 321 971.1 321C923.2 321 899.3 283.9 851.4 283.9C803.5 283.9 779.5 321 731.6 321C683.7 321 659.8 283.9 611.9 283.9C564 283.9 540 321 492.1 321C444.2 321 420.3 283.9 372.4 283.9C324.5 283.9 300.5 321 252.6 321C204.7 321 180.8 283.9 132.9 283.9C85 283.9 61 321 13.1 321C-34.8 321 -58.7 283.9 -106.6 283.9" stroke="#4ade80" stroke-width="2" stroke-miterlimit="10"/>
<path d="M1175.4 358.1C1175.4 358.1 1114.8 321 1066.9 358.  stroke-miterlimit="10"/>
<path d="M1175.4 358.1C1175.4 358.1 1114.8 321 1066.9 358.1C1019 395.2 1019 432.3 971.1 432.3C923.2 432.3 899.3 395.2 851.4 395.2C803.5 395.2 779.5 432.3 731.6 432.3C683.7 432.3 659.8 395.2 611.9 395.2C564 395.2 540 432.3 492.1 432.3C444.2 432.3 420.3 395.2 372.4 395.2C324.5 395.2 300.5 432.3 252.6 432.3C204.7 432.3 180.8 395.2 132.9 395.2C85 395.2 61 432.3 13.1 432.3C-34.8 432.3 -58.7 395.2 -106.6 395.2" stroke="#4ade80" stroke-width="2" stroke-miterlimit="10"/>
<path d="M1175.4 469.4C1175.4 469.4 1114.8 432.3 1066.9 469.4C1019 506.5 1019 543.6 971.1 543.6C923.2 543.6 899.3 506.5 851.4 506.5C803.5 506.5 779.5 543.6 731.6 543.6C683.7 543.6 659.8 506.5 611.9 506.5C564 506.5 540 543.6 492.1 543.6C444.2 543.6 420.3 506.5 372.4 506.5C324.5 506.5 300.5 543.6 252.6 543.6C204.7 543.6 180.8 506.5 132.9 506.5C85 506.5 61 543.6 13.1 543.6C-34.8 543.6 -58.7 506.5 -106.6 506.5" stroke="#4ade80" stroke-width="2" stroke-miterlimit="10"/>
<path d="M1175.4 580.7C1175.4 580.7 1114.8 543.6 1066.9 580.7C1019 617.8 1019 654.9 971.1 654.9C923.2 654.9 899.3 617.8 851.4 617.8C803.5 617.8 779.5 654.9 731.6 654.9C683.7 654.9 659.8 617.8 611.9 617.8C564 617.8 540 654.9 492.1 654.9C444.2 654.9 420.3 617.8 372.4 617.8C324.5 617.8 300.5 654.9 252.6 654.9C204.7 654.9 180.8 617.8 132.9 617.8C85 617.8 61 654.9 13.1 654.9C-34.8 654.9 -58.7 617.8 -106.6 617.8" stroke="#4ade80" stroke-width="2" stroke-miterlimit="10"/>
<path d="M1175.4 692C1175.4 692 1114.8 654.9 1066.9 692C1019 729.1 1019 766.2 971.1 766.2C923.2 766.2 899.3 729.1 851.4 729.1C803.5 729.1 779.5 766.2 731.6 766.2C683.7 766.2 659.8 729.1 611.9 729.1C564 729.1 540 766.2 492.1 766.2C444.2 766.2 420.3 729.1 372.4 729.1C324.5 729.1 300.5 766.2 252.6 766.2C204.7 766.2 180.8 729.1 132.9 729.1C85 729.1 61 766.2 13.1 766.2C-34.8 766.2 -58.7 729.1 -106.6 729.1" stroke="#4ade80" stroke-width="2" stroke-miterlimit="10"/>
<path d="M1175.4 803.3C1175.4 803.3 1114.8 766.2 1066.9 803.3C1019 840.4 1019 877.5 971.1 877.5C923.2 877.5 899.3 840.4 851.4 840.4C803.5 840.4 779.5 877.5 731.6 877.5C683.7 877.5 659.8 840.4 611.9 840.4C564 840.4 540 877.5 492.1 877.5C444.2 877.5 420.3 840.4 372.4 840.4C324.5 840.4 300.5 877.5 252.6 877.5C204.7 877.5 180.8 840.4 132.9 840.4C85 840.4 61 877.5 13.1 877.5C-34.8 877.5 -58.7 840.4 -106.6 840.4" stroke="#4ade80" stroke-width="2" stroke-miterlimit="10"/>
</g>
<g opacity="0.4">
<path d="M1546.6 24.2C1546.6 24.2 1486 -12.9 1438.1 24.2C1390.2 61.3 1390.2 98.4 1342.3 98.4C1294.4 98.4 1270.5 61.3 1222.6 61.3C1174.7 61.3 1150.7 98.4 1102.8 98.4C1054.9 98.4 1031 61.3 983.1 61.3C935.2 61.3 911.2 98.4 863.3 98.4C815.4 98.4 791.5 61.3 743.6 61.3C695.7 61.3 671.7 98.4 623.8 98.4C575.9 98.4 552 61.3 504.1 61.3C456.2 61.3 432.2 98.4 384.3 98.4C336.4 98.4 312.5 61.3 264.6 61.3" stroke="#15803d" stroke-width="2" stroke-miterlimit="10"/>
<path d="M1546.6 135.5C1546.6 135.5 1486 98.4 1438.1 135.5C1390.2 172.6 1390.2 209.7 1342.3 209.7C1294.4 209.7 1270.5 172.6 1222.6 172.6C1174.7 172.6 1150.7 209.7 1102.8 209.7C1054.9 209.7 1031 172.6 983.1 172.6C935.2 172.6 911.2 209.7 863.3 209.7C815.4 209.7 791.5 172.6 743.6 172.6C695.7 172.6 671.7 209.7 623.8 209.7C575.9 209.7 552 172.6 504.1 172.6C456.2 172.6 432.2 209.7 384.3 209.7C336.4 209.7 312.5 172.6 264.6 172.6" stroke="#15803d" stroke-width="2" stroke-miterlimit="10"/>
<path d="M1546.6 246.8C1546.6 246.8 1486 209.7 1438.1 246.8C1390.2 283.9 1390.2 321 1342.3 321C1294.4 321 1270.5 283.9 1222.6 283.9C1174.7 283.9 1150.7 321 1102.8 321C1054.9 321 1031 283.9 983.1 283.9C935.2 283.9 911.2 321 863.3 321C815.4 321 791.5 283.9 743.6 283.9C695.7 283.9 671.7 321 623.8 321C575.9 321 552 283.9 504.1 283.9C456.2 283.9 432.2 321 384.3 321C336.4 321 312.5 283.9 264.6 283.9" stroke="#15803d" stroke-width="2" stroke-miterlimit="10"/>
<path d="M1546.6 358.1C1546.6 358.1 1486 321 1438.1 358.1C1390.2 395.2 1390.2 432.3 1342.3 432.3C1294.4 432.3 1270.5 395.2 1222.6 395.2C1174.7 395.2 1150.7 432.3 1102.8 432.3C1054.9 432.3 1031 395.2 983.1 395.2C935.2 395.2 911.2 432.3 863.3 432.3C815.4 432.3 791.5 395.2 743.6 395.2C695.7 395.2 671.7 432.3 623.8 432.3C575.9 432.3 552 395.2 504.1 395.2C456.2 395.2 432.2 432.3 384.3 432.3C336.4 432.3 312.5 395.2 264.6 395.2" stroke="#15803d" stroke-width="2" stroke-miterlimit="10"/>
<path d="M1546.6 469.4C1546.6 469.4 1486 432.3 1438.1 469.4C1390.2 506.5 1390.2 543.6 1342.3 543.6C1294.4 543.6 1270.5 506.5 1222.6 506.5C1174.7 506.5 1150.7 543.6 1102.8 543.6C1054.9 543.6 1031 506.5 983.1 506.5C935.2 506.5 911.2 543.6 863.3 543.6C815.4 543.6 791.5 506.5 743.6 506.5C695.7 506.5 671.7 543.6 623.8 543.6C575.9 543.6 552 506.5 504.1 506.5C456.2 506.5 432.2 543.6 384.3 543.6C336.4 543.6 312.5 506.5 264.6 506.5" stroke="#15803d" stroke-width="2" stroke-miterlimit="10"/>
<path d="M1546.6 580.7C1546.6 580.7 1486 543.6 1438.1 580.7C1390.2 617.8 1390.2 654.9 1342.3 654.9C1294.4 654.9 1270.5 617.8 1222.6 617.8C1174.7 617.8 1150.7 654.9 1102.8 654.9C1054.9 654.9 1031 617.8 983.1 617.8C935.2 617.8 911.2 654.9 863.3 654.9C815.4 654.9 791.5 617.8 743.6 617.8C695.7 617.8 671.7 654.9 623.8 654.9C575.9 654.9 552 617.8 504.1 617.8C456.2 617.8 432.2 654.9 384.3 654.9C336.4 654.9 312.5 617.8 264.6 617.8" stroke="#15803d" stroke-width="2" stroke-miterlimit="10"/>
<path d="M1546.6 692C1546.6 692 1486 654.9 1438.1 692C1390.2 729.1 1390.2 766.2 1342.3 766.2C1294.4 766.2 1270.5 729.1 1222.6 729.1C1174.7 729.1 1150.7 766.2 1102.8 766.2C1054.9 766.2 1031 729.1 983.1 729.1C935.2 729.1 911.2 766.2 863.3 766.2C815.4 766.2 791.5 729.1 743.6 729.1C695.7 729.1 671.7 766.2 623.8 766.2C575.9 766.2 552 729.1 504.1 729.1C456.2 729.1 432.2 766.2 384.3 766.2C336.4 766.2 312.5 729.1 264.6 729.1" stroke="#15803d" stroke-width="2" stroke-miterlimit="10"/>
<path d="M1546.6 803.3C1546.6 803.3 1486 766.2 1438.1 803.3C1390.2 840.4 1390.2 877.5 1342.3 877.5C1294.4 877.5 1270.5 840.4 1222.6 840.4C1174.7 840.4 1150.7 877.5 1102.8 877.5C1054.9 877.5 1031 840.4 983.1 840.4C935.2 840.4 911.2 877.5 863.3 877.5C815.4 877.5 791.5 840.4 743.6 840.4C695.7 840.4 671.7 877.5 623.8 877.5C575.9 877.5 552 840.4 504.1 840.4C456.2 840.4 432.2 877.5 384.3 877.5C336.4 877.5 312.5 840.4 264.6 840.4" stroke="#15803d" stroke-width="2" stroke-miterlimit="10"/>
</g>
</g>
<defs>
<linearGradient id="paint0_linear_1_2" x1="720" y1="0" x2="720" y2="900" gradientUnits="userSpaceOnUse">
<stop stop-color="#1f2937"/>
<stop offset="1" stop-color="#111827"/>
</linearGradient>
<clipPath id="clip0_1_2">
<rect width="1440" height="900" fill="white"/>
</clipPath>
</defs>
</svg>
