<svg width="24" height="24" viewBox="0 0 24 24" fill="none" xmlns="http://www.w3.org/2000/svg">
<path d="M21 3C21 3 18.9 5.75 17 7C14.5 8.5 13.5 9 11.5 10.5C9.5 12 9 13 9 13" stroke="#15803d" stroke-width="2" stroke-linecap="round" stroke-linejoin="round"/>
<path d="M3 21C3 21 5.75 18.9 7 17C8.5 14.5 9 13.5 10.5 11.5C12 9.5 13 9 13 9" stroke="#15803d" stroke-width="2" stroke-linecap="round" stroke-linejoin="round"/>
<path d="M12 12C7.5 12 3 7.5 3 3" stroke="#15803d" stroke-width="2" stroke-linecap="round" stroke-linejoin="round"/>
<path d="M12 12C12 7.5 16.5 3 21 3" stroke="#15803d" stroke-width="2" stroke-linecap="round" stroke-linejoin="round"/>
<path d="M12 12C16.5 12 21 16.5 21 21" stroke="#15803d" stroke-width="2" stroke-linecap="round" stroke-linejoin="round"/>
<path d="M12 12C12 16.5 7.5 21 3 21" stroke="#15803d" stroke-width="2" stroke-linecap="round" stroke-linejoin="round"/>
</svg>
